<svg width="1024" height="1024" viewBox="0 0 680 680" xmlns="http://www.w3.org/2000/svg">
<style>
  .icon-bg { fill: #F2F2F7; }
  .gear-outer { fill: #E5E5EA; }
  .gear-face { fill: #EBEBF0; }
  .tooth { fill: #DCDCE2; stroke: #C7C7CC; stroke-width: 0.5; }
  .arc-track { stroke: #D1D1D6; stroke-width: 6; fill: none; stroke-linecap: round; }
  .arc-progress { stroke: #2DB866; stroke-width: 6; fill: none; stroke-linecap: round; }
  .tick-major { stroke: #8E8E93; stroke-width: 2.5; stroke-linecap: round; }
  .tick-minor { stroke: #C7C7CC; stroke-width: 1.2; stroke-linecap: round; }
  .hand-min { stroke: #48484A; stroke-width: 4; stroke-linecap: round; }
  .hand-hr { stroke: #1C1C1E; stroke-width: 5.5; stroke-linecap: round; }
  .hand-sec { stroke: #2DB866; stroke-width: 2; stroke-linecap: round; }
  .center-dot { fill: #2DB866; }
  .center-ring { fill: #EBEBF0; stroke: #2DB866; stroke-width: 1.5; }
  .subtle-ring { stroke: #D1D1D6; stroke-width: 1; fill: none; }
  .chapter-dot { fill: #2DB866; opacity: 0.7; }
  .chapter-dot-dim { fill: #C7C7CC; opacity: 0.5; }
  .accent-glow { fill: #2DB866; }
</style>

<rect width="680" height="680" fill="#F2F2F7"/>
<rect x="40" y="40" width="600" height="600" rx="130" class="icon-bg"/>


<g transform="translate(340,340)">
  <circle cx="0" cy="0" r="220" class="gear-outer"/>
  <path d="M205,-30 L235,-18 L235,0 L205,10 Z" class="tooth" transform="rotate(0)"/>
  <path d="M205,-30 L235,-18 L235,0 L205,10 Z" class="tooth" transform="rotate(22.5)"/>
  <path d="M205,-30 L235,-18 L235,0 L205,10 Z" class="tooth" transform="rotate(45)"/>
  <path d="M205,-30 L235,-18 L235,0 L205,10 Z" class="tooth" transform="rotate(67.5)"/>
  <path d="M205,-30 L235,-18 L235,0 L205,10 Z" class="tooth" transform="rotate(90)"/>
  <path d="M205,-30 L235,-18 L235,0 L205,10 Z" class="tooth" transform="rotate(112.5)"/>
  <path d="M205,-30 L235,-18 L235,0 L205,10 Z" class="tooth" transform="rotate(135)"/>
  <path d="M205,-30 L235,-18 L235,0 L205,10 Z" class="tooth" transform="rotate(157.5)"/>
  <path d="M205,-30 L235,-18 L235,0 L205,10 Z" class="tooth" transform="rotate(180)"/>
  <path d="M205,-30 L235,-18 L235,0 L205,10 Z" class="tooth" transform="rotate(202.5)"/>
  <path d="M205,-30 L235,-18 L235,0 L205,10 Z" class="tooth" transform="rotate(225)"/>
  <path d="M205,-30 L235,-18 L235,0 L205,10 Z" class="tooth" transform="rotate(247.5)"/>
  <path d="M205,-30 L235,-18 L235,0 L205,10 Z" class="tooth" transform="rotate(270)"/>
  <path d="M205,-30 L235,-18 L235,0 L205,10 Z" class="tooth" transform="rotate(292.5)"/>
  <path d="M205,-30 L235,-18 L235,0 L205,10 Z" class="tooth" transform="rotate(315)"/>
  <path d="M205,-30 L235,-18 L235,0 L205,10 Z" class="tooth" transform="rotate(337.5)"/>
  <circle cx="0" cy="0" r="195" class="gear-face"/>
  <circle cx="0" cy="0" r="170" class="arc-track"/>
  <circle cx="0" cy="0" r="170" class="arc-progress" stroke-dasharray="748 1068" stroke-dashoffset="0" transform="rotate(-90)"/>
  <circle cx="0" cy="-170" r="4" class="chapter-dot" transform="rotate(0)"/>
  <circle cx="0" cy="-170" r="3" class="chapter-dot-dim" transform="rotate(90)"/>
  <circle cx="0" cy="-170" r="3" class="chapter-dot-dim" transform="rotate(180)"/>
  <circle cx="0" cy="-170" r="4" class="chapter-dot" transform="rotate(252)"/>
  <line x1="0" y1="-148" x2="0" y2="-130" class="tick-major" transform="rotate(0)"/>
  <line x1="0" y1="-148" x2="0" y2="-130" class="tick-major" transform="rotate(90)"/>
  <line x1="0" y1="-148" x2="0" y2="-130" class="tick-major" transform="rotate(180)"/>
  <line x1="0" y1="-148" x2="0" y2="-130" class="tick-major" transform="rotate(270)"/>
  <line x1="0" y1="-148" x2="0" y2="-138" class="tick-minor" transform="rotate(30)"/>
  <line x1="0" y1="-148" x2="0" y2="-138" class="tick-minor" transform="rotate(60)"/>
  <line x1="0" y1="-148" x2="0" y2="-138" class="tick-minor" transform="rotate(120)"/>
  <line x1="0" y1="-148" x2="0" y2="-138" class="tick-minor" transform="rotate(150)"/>
  <line x1="0" y1="-148" x2="0" y2="-138" class="tick-minor" transform="rotate(210)"/>
  <line x1="0" y1="-148" x2="0" y2="-138" class="tick-minor" transform="rotate(240)"/>
  <line x1="0" y1="-148" x2="0" y2="-138" class="tick-minor" transform="rotate(300)"/>
  <line x1="0" y1="-148" x2="0" y2="-138" class="tick-minor" transform="rotate(330)"/>
  <line x1="0" y1="10" x2="0" y2="-78" class="hand-hr" transform="rotate(304.5)"/>
  <line x1="0" y1="10" x2="0" y2="-100" class="hand-min" transform="rotate(54)"/>
  <line x1="0" y1="25" x2="0" y2="-110" class="hand-sec" transform="rotate(216)"/>
  <circle cx="0" cy="0" r="8" class="center-ring"/>
  <circle cx="0" cy="0" r="4" class="center-dot"/>
</g>

<circle cx="340" cy="340" r="180" class="accent-glow" opacity="0.04"/>

<g transform="translate(340, 582)">
  <rect x="-46" y="-4" width="28" height="8" rx="4" fill="#2DB866" opacity="0.85"/>
  <rect x="-14" y="-4" width="16" height="8" rx="4" fill="#2DB866" opacity="0.55"/>
  <rect x="6" y="-4" width="40" height="8" rx="4" fill="#2DB866" opacity="0.35"/>
</g>
</svg>
